<?xml version="1.0" encoding="UTF-8" standalone="no"?>
<svg version="1.1" xmlns="http://www.w3.org/2000/svg" xmlns:xlink="http://www.w3.org/1999/xlink" width="700" height="700" viewBox="610 123.5 700 700"><g id="document" fill="#ffffff" fill-rule="nonzero" font-family="none" font-weight="none" font-size="none"><rect x="610" y="88.21429" transform="scale(1,1.4)" width="700" height="500" id="Shape-1-1"/></g><g fill="none" fill-rule="nonzero" stroke="none" stroke-width="1" stroke-linecap="none" stroke-linejoin="none" stroke-miterlimit="10" font-family="none" font-weight="none" font-size="none"><g id="stage"><g id="Layer2-1" fill="none" font-family="sans-serif" font-weight="normal" font-size="12" text-anchor="start"/><g id="layer1-1"><path d="M711,660c-30.37566,0 -55,-24.62434 -55,-55v-214c0,-30.37566 24.62434,-55 55,-55h480c30.37566,0 55,24.62434 55,55v214c0,30.37566 -24.62434,55 -55,55z" id="Path-1" fill="#ffffff"/><path d="M733,640c-30.37566,0 -55,-24.62434 -55,-55v-174c0,-30.37566 24.62434,-55 55,-55h433c30.37566,0 55,24.62434 55,55v174c0,30.37566 -24.62434,55 -55,55z" id="Path-1-1" fill="#c8c8c8"/></g></g></g></svg>